<?xml version="1.0" encoding="utf-8"?>
<!-- Generator: Adobe Illustrator 27.1.1, SVG Export Plug-In . SVG Version: 6.00 Build 0)  -->
<svg version="1.1" id="Layer_1" xmlns="http://www.w3.org/2000/svg" xmlns:xlink="http://www.w3.org/1999/xlink" x="0px" y="0px"
	 viewBox="0 0 1920 1080" style="enable-background:new 0 0 1920 1080;" xml:space="preserve">
<style type="text/css">
	.st0{fill:#231F20;}
	.st1{fill:#AE8E59;}
	.st2{fill:#7E8083;}
	.st3{fill:#FFFCF4;}
</style>
<rect class="st0" width="1920" height="1080"/>
<rect y="793" class="st1" width="1920" height="287"/>
<rect x="234" y="59" class="st2" width="224" height="186"/>
<rect x="128" y="165" class="st2" width="244" height="147"/>
<rect x="167" y="108" class="st2" width="394" height="243"/>
<rect x="509" y="165" class="st2" width="105" height="166"/>
<rect x="803" y="59" class="st3" width="53" height="30"/>
<rect x="756" y="59" class="st2" width="346" height="292"/>
<rect x="1065" y="74" class="st2" width="103" height="257"/>
<rect x="682" y="98" class="st2" width="233" height="233"/>
<rect x="775" y="266" class="st2" width="316" height="107"/>
<rect x="1365" y="28" class="st2" width="347" height="337"/>
<rect x="1307" y="89" class="st2" width="216" height="216"/>
<rect x="1617" y="59" class="st2" width="130" height="63"/>
<rect x="1760" y="152" class="st2" width="73" height="130"/>
<rect x="1291" y="108" class="st2" width="16" height="183"/>
<rect x="1242" y="152" class="st2" width="173" height="86"/>
<rect x="-14" y="89" class="st2" width="74" height="291"/>
<rect x="31" y="165" class="st2" width="51" height="186"/>
<rect y="49" class="st2" width="31" height="59"/>
<rect x="31" y="351" class="st2" width="37" height="14"/>
<rect x="1893" y="108" class="st2" width="37" height="150"/>
<rect x="1903" y="49" class="st2" width="45" height="73"/>
<rect x="1903" y="258" class="st2" width="27" height="80"/>
<rect x="1682" y="87" class="st2" width="114.5" height="244"/>
</svg>
